<svg width="76" height="23" fill="none" xmlns="http://www.w3.org/2000/svg"><path d="M9.3 22.3c-1.54 0-2.94-.26-4.2-.78-1.24-.54-2.23-1.33-2.97-2.37C1.39 18.11.98 16.87.9 15.43l-.03-1.2L.9 13c.06-1.44.46-2.68 1.2-3.72.76-1.04 1.76-1.83 3-2.37 1.26-.54 2.66-.81 4.2-.81 1.96 0 3.6.36 4.92 1.08 1.32.7 2.29 1.52 2.91 2.46.64.94.96 1.72.96 2.34 0 .2-.08.38-.24.54-.16.14-.35.21-.57.21h-5.85c-.38 0-.67-.2-.87-.6-.16-.32-.32-.55-.48-.69-.14-.14-.35-.21-.63-.21-.44 0-.75.16-.93.48-.16.32-.25.8-.27 1.44l-.03 1.17.03.96c.04.68.14 1.17.3 1.47.16.28.46.42.9.42.32 0 .55-.06.69-.18.14-.14.28-.38.42-.72.16-.4.45-.6.87-.6h5.85c.22 0 .41.08.57.24.16.14.24.31.24.51 0 .56-.3 1.31-.9 2.25-.6.94-1.56 1.78-2.88 2.52-1.3.74-2.97 1.11-5.01 1.11z" fill="#F95861"/><path d="M29.672 22c-2.36 0-4.2-.49-5.52-1.47-1.32-1-1.98-2.66-1.98-4.98v-3.9h-2.37c-.22 0-.41-.08-.57-.24a.779.779 0 01-.24-.57V7.21c0-.22.08-.41.24-.57.16-.16.35-.24.57-.24h2.37V1.51c0-.22.08-.41.24-.57.16-.16.35-.24.57-.24h5.25c.22 0 .41.08.57.24.16.16.24.35.24.57V6.4h3.78c.22 0 .41.08.57.24.16.16.24.35.24.57v3.63c0 .22-.08.41-.24.57-.16.16-.35.24-.57.24h-3.78v3.3c0 1 .43 1.5 1.29 1.5h2.73c.22 0 .41.08.57.24.16.16.24.35.24.57v3.93c0 .22-.08.41-.24.57-.16.16-.35.24-.57.24h-3.39z" fill="#6979F8"/><path d="M43.929 22.3c-1.54 0-2.94-.26-4.2-.78-1.24-.54-2.23-1.33-2.97-2.37-.74-1.04-1.15-2.28-1.23-3.72l-.03-1.2.03-1.23c.06-1.44.46-2.68 1.2-3.72.76-1.04 1.76-1.83 3-2.37 1.26-.54 2.66-.81 4.2-.81 1.96 0 3.6.36 4.92 1.08 1.32.7 2.29 1.52 2.91 2.46.64.94.96 1.72.96 2.34 0 .2-.08.38-.24.54-.16.14-.35.21-.57.21h-5.85c-.38 0-.67-.2-.87-.6-.16-.32-.32-.55-.48-.69-.14-.14-.35-.21-.63-.21-.44 0-.75.16-.93.48-.16.32-.25.8-.27 1.44l-.03 1.17.03.96c.04.68.14 1.17.3 1.47.16.28.46.42.9.42.32 0 .55-.06.69-.18.14-.14.28-.38.42-.72.16-.4.45-.6.87-.6h5.85c.22 0 .41.08.57.24.16.14.24.31.24.51 0 .56-.3 1.31-.9 2.25-.6.94-1.56 1.78-2.88 2.52-1.3.74-2.97 1.11-5.01 1.11z" fill="#fff"/><rect x="55" y="11" width="16" height="6" rx="1" fill="#fff"/></svg>