<svg width="202" height="46" fill="none" xmlns="http://www.w3.org/2000/svg"><path d="M8.06 21.26c-1.335 0-2.548-.225-3.64-.676-1.075-.468-1.933-1.153-2.574-2.054-.641-.901-.997-1.976-1.066-3.224l-.026-1.04L.78 13.2c.052-1.248.399-2.323 1.04-3.224.659-.901 1.525-1.586 2.6-2.054 1.092-.468 2.305-.702 3.64-.702 1.699 0 3.12.312 4.264.936 1.144.607 1.985 1.317 2.522 2.132.555.815.832 1.49.832 2.028 0 .173-.07.33-.208.468a.726.726 0 01-.494.182h-5.07c-.33 0-.58-.173-.754-.52-.139-.277-.277-.477-.416-.598-.121-.121-.303-.182-.546-.182-.381 0-.65.139-.806.416-.139.277-.217.693-.234 1.248l-.026 1.014.026.832c.035.59.121 1.014.26 1.274.139.243.399.364.78.364.277 0 .477-.052.598-.156.121-.121.243-.33.364-.624.139-.347.39-.52.754-.52h5.07c.19 0 .355.07.494.208a.566.566 0 01.208.442c0 .485-.26 1.135-.78 1.95s-1.352 1.543-2.496 2.184c-1.127.641-2.574.962-4.342.962zm13.6 0c-.97 0-1.846-.182-2.626-.546-.763-.364-1.36-.858-1.794-1.482a3.711 3.711 0 01-.624-2.106c0-2.34 1.898-3.84 5.694-4.498l2.756-.442v-.026c0-.503-.043-.84-.13-1.014-.087-.19-.303-.286-.65-.286-.19 0-.356.035-.494.104-.139.07-.286.173-.442.312a2.574 2.574 0 01-.416.312c-.104.07-.252.104-.442.104h-4.42a.698.698 0 01-.416-.13.53.53 0 01-.156-.39c0-.503.242-1.066.728-1.69.502-.624 1.265-1.153 2.288-1.586 1.04-.45 2.314-.676 3.822-.676 2.322 0 4.064.485 5.226 1.456 1.161.97 1.742 2.357 1.742 4.16v7.462a.68.68 0 01-.208.494.675.675 0 01-.494.208h-4.55a.675.675 0 01-.494-.208.675.675 0 01-.208-.494v-.728c-.381.52-.893.936-1.534 1.248-.642.295-1.36.442-2.158.442zm1.794-3.848c.52 0 .927-.165 1.222-.494.312-.33.468-.832.468-1.508v-.026l-1.534.338c-.763.173-1.144.494-1.144.962a.64.64 0 00.26.52c.173.139.416.208.728.208zM34.22 21a.675.675 0 01-.494-.208.675.675 0 01-.208-.494V8.182c0-.19.069-.355.208-.494a.675.675 0 01.494-.208h4.55c.19 0 .355.07.494.208a.675.675 0 01.208.494v.91a6.533 6.533 0 011.898-1.17 5.463 5.463 0 012.158-.442h1.248c.19 0 .355.07.494.208a.675.675 0 01.208.494v4.056a.68.68 0 01-.208.494.675.675 0 01-.494.208h-3.354c-1.04 0-1.56.52-1.56 1.56v5.798a.68.68 0 01-.208.494.675.675 0 01-.494.208h-4.94zm13.457 0a.675.675 0 01-.494-.208.675.675 0 01-.208-.494V8.182c0-.19.069-.355.208-.494a.675.675 0 01.494-.208h4.55c.19 0 .355.07.494.208a.675.675 0 01.208.494v.91a6.534 6.534 0 011.898-1.17 5.464 5.464 0 012.158-.442h1.248c.19 0 .355.07.494.208a.675.675 0 01.208.494v4.056a.68.68 0 01-.208.494.675.675 0 01-.494.208h-3.354c-1.04 0-1.56.52-1.56 1.56v5.798a.68.68 0 01-.208.494.675.675 0 01-.494.208h-4.94zm15.433 4.94a.621.621 0 01-.416-.156.53.53 0 01-.156-.39v-.104a.172.172 0 01.026-.156l2.08-4.992-5.018-11.856a.577.577 0 01-.026-.182.845.845 0 01.234-.442.573.573 0 01.416-.182h4.394c.398 0 .676.208.832.624l2.132 5.928 2.21-5.928c.173-.416.468-.624.884-.624h4.342c.156 0 .294.06.416.182a.467.467 0 01.182.364c0 .104-.009.19-.026.26l-7.332 17.03c-.174.416-.477.624-.91.624H63.11z" fill="#F95861"/><path d="M85.333 21c-2.045 0-3.64-.425-4.784-1.274-1.144-.867-1.716-2.305-1.716-4.316v-3.38h-2.054a.675.675 0 01-.494-.208.675.675 0 01-.208-.494V8.182c0-.19.07-.355.208-.494a.675.675 0 01.494-.208h2.054V3.242c0-.19.07-.355.208-.494a.675.675 0 01.494-.208h4.55c.19 0 .355.07.494.208a.675.675 0 01.208.494V7.48h3.276c.19 0 .355.07.494.208a.675.675 0 01.208.494v3.146a.68.68 0 01-.208.494.675.675 0 01-.494.208h-3.276v2.86c0 .867.373 1.3 1.118 1.3h2.366c.19 0 .355.07.494.208a.675.675 0 01.208.494v3.406a.68.68 0 01-.208.494.675.675 0 01-.494.208h-2.938zm6.168 0a.675.675 0 01-.494-.208.675.675 0 01-.208-.494V3.242c0-.19.07-.355.208-.494a.675.675 0 01.494-.208h5.07c.19 0 .355.07.494.208a.675.675 0 01.208.494v5.59a4.795 4.795 0 011.716-1.17 5.658 5.658 0 012.236-.442 5.16 5.16 0 012.548.65c.78.416 1.413 1.075 1.898 1.976.485.884.728 1.976.728 3.276v7.176c0 .19-.069.355-.208.494a.675.675 0 01-.494.208h-5.096a.675.675 0 01-.494-.208.674.674 0 01-.208-.494v-6.994c0-.468-.113-.823-.338-1.066-.225-.243-.546-.364-.962-.364-.416 0-.745.121-.988.364-.225.243-.338.598-.338 1.066v6.994a.68.68 0 01-.208.494.675.675 0 01-.494.208H91.5zm17.799 0a.673.673 0 01-.494-.208.674.674 0 01-.208-.494V8.182c0-.19.069-.355.208-.494a.673.673 0 01.494-.208h4.55c.19 0 .355.07.494.208a.677.677 0 01.208.494v.91a6.525 6.525 0 011.898-1.17 5.46 5.46 0 012.158-.442h1.248c.19 0 .355.07.494.208a.677.677 0 01.208.494v4.056a.68.68 0 01-.208.494.676.676 0 01-.494.208h-3.354c-1.04 0-1.56.52-1.56 1.56v5.798a.68.68 0 01-.208.494.676.676 0 01-.494.208h-4.94zm19.931.26c-4.767 0-7.28-1.933-7.54-5.798-.018-.26-.026-.667-.026-1.222 0-.555.008-.962.026-1.222.121-1.89.84-3.328 2.158-4.316 1.317-.988 3.111-1.482 5.382-1.482 2.27 0 4.064.494 5.382 1.482 1.317.988 2.036 2.427 2.158 4.316.034.52.052.927.052 1.222 0 .295-.018.702-.052 1.222-.26 3.865-2.774 5.798-7.54 5.798zm0-4.16c.468 0 .771-.121.91-.364.138-.26.225-.728.26-1.404.017-.173.026-.537.026-1.092s-.009-.919-.026-1.092c-.052-.659-.148-1.118-.286-1.378-.139-.26-.434-.39-.884-.39-.451 0-.746.13-.884.39-.139.26-.234.72-.286 1.378l-.026 1.092.026 1.092c.034.676.121 1.144.26 1.404.138.243.442.364.91.364zm14.419 4.16a5.183 5.183 0 01-2.522-.624c-.762-.433-1.378-1.092-1.846-1.976-.45-.884-.676-1.985-.676-3.302V8.182c0-.19.07-.355.208-.494a.676.676 0 01.494-.208h4.966c.191 0 .356.07.494.208a.674.674 0 01.208.494v6.994c0 .468.113.823.338 1.066.226.243.546.364.962.364.416 0 .737-.121.962-.364.226-.243.338-.598.338-1.066V8.182c0-.19.07-.355.208-.494a.676.676 0 01.494-.208h4.94c.191 0 .356.07.494.208a.674.674 0 01.208.494v12.116c0 .19-.069.355-.208.494a.673.673 0 01-.494.208h-4.55a.676.676 0 01-.494-.208.677.677 0 01-.208-.494v-.858c-.416.607-.996 1.066-1.742 1.378-.745.295-1.603.442-2.574.442zm20.224 5.46c-1.803 0-3.285-.295-4.446-.884-1.144-.572-1.976-1.23-2.496-1.976-.52-.745-.78-1.36-.78-1.846 0-.173.069-.33.208-.468a.726.726 0 01.494-.182h5.07c.191 0 .338.043.442.13.104.087.199.217.286.39.121.243.26.407.416.494.156.104.381.156.676.156.745 0 1.118-.511 1.118-1.534v-1.716c-.849.745-2.002 1.118-3.458 1.118-1.716 0-3.033-.45-3.952-1.352-.919-.919-1.439-2.427-1.56-4.524l-.026-.676c0-2.219.477-3.874 1.43-4.966.971-1.11 2.34-1.664 4.108-1.664.815 0 1.551.165 2.21.494a4.592 4.592 0 011.638 1.274v-.806c0-.19.069-.355.208-.494a.675.675 0 01.494-.208h4.55c.191 0 .355.07.494.208a.674.674 0 01.208.494l.026 12.376c0 2.08-.676 3.623-2.028 4.628-1.352 1.023-3.129 1.534-5.33 1.534zm-.312-10.842c.433 0 .745-.104.936-.312.208-.225.329-.555.364-.988.017-.087.026-.32.026-.702 0-.693-.095-1.196-.286-1.508-.173-.33-.52-.494-1.04-.494-.451 0-.771.13-.962.39-.191.243-.303.615-.338 1.118l-.026.494c0 .676.087 1.179.26 1.508.191.33.546.494 1.066.494zM174.274 21a.676.676 0 01-.494-.208.677.677 0 01-.208-.494V3.242c0-.19.07-.355.208-.494a.676.676 0 01.494-.208h5.07c.191 0 .356.07.494.208a.674.674 0 01.208.494v5.59a4.795 4.795 0 011.716-1.17 5.66 5.66 0 012.236-.442 5.16 5.16 0 012.548.65c.78.416 1.413 1.075 1.898 1.976.486.884.728 1.976.728 3.276v7.176c0 .19-.069.355-.208.494a.673.673 0 01-.494.208h-5.096a.676.676 0 01-.494-.208.677.677 0 01-.208-.494v-6.994c0-.468-.112-.823-.338-1.066-.225-.243-.546-.364-.962-.364-.416 0-.745.121-.988.364-.225.243-.338.598-.338 1.066v6.994c0 .19-.069.355-.208.494a.673.673 0 01-.494.208h-5.07z" fill="#6979F8"/><path d="M8.06 45.26c-1.335 0-2.548-.225-3.64-.676-1.075-.468-1.933-1.153-2.574-2.054-.641-.901-.997-1.976-1.066-3.224l-.026-1.04L.78 37.2c.052-1.248.399-2.323 1.04-3.224.659-.901 1.525-1.586 2.6-2.054 1.092-.468 2.305-.702 3.64-.702 1.699 0 3.12.312 4.264.936 1.144.607 1.985 1.317 2.522 2.132.555.815.832 1.49.832 2.028 0 .173-.07.33-.208.468a.726.726 0 01-.494.182h-5.07c-.33 0-.58-.173-.754-.52-.139-.277-.277-.477-.416-.598-.121-.121-.303-.182-.546-.182-.381 0-.65.139-.806.416-.139.277-.217.693-.234 1.248l-.026 1.014.026.832c.035.59.121 1.014.26 1.274.139.243.399.364.78.364.277 0 .477-.052.598-.156.121-.121.243-.33.364-.624.139-.347.39-.52.754-.52h5.07c.19 0 .355.07.494.208a.566.566 0 01.208.442c0 .485-.26 1.135-.78 1.95s-1.352 1.543-2.496 2.184c-1.127.641-2.574.962-4.342.962zm16.46 0c-4.767 0-7.28-1.933-7.54-5.798-.018-.26-.026-.667-.026-1.222 0-.555.008-.962.026-1.222.121-1.89.84-3.328 2.158-4.316 1.317-.988 3.111-1.482 5.382-1.482 2.27 0 4.064.494 5.382 1.482 1.317.988 2.037 2.427 2.158 4.316.034.52.052.927.052 1.222 0 .295-.018.702-.052 1.222-.26 3.865-2.774 5.798-7.54 5.798zm0-4.16c.468 0 .771-.121.91-.364.139-.26.225-.728.26-1.404.017-.173.026-.537.026-1.092s-.009-.919-.026-1.092c-.052-.659-.148-1.118-.286-1.378-.139-.26-.433-.39-.884-.39-.45 0-.745.13-.884.39s-.234.72-.286 1.378l-.026 1.092.026 1.092c.034.676.121 1.144.26 1.404.139.243.442.364.91.364zM38.407 45c-.225 0-.399-.052-.52-.156a1.887 1.887 0 01-.338-.494l-4.992-12.064a.574.574 0 01-.026-.182.6.6 0 01.182-.442.602.602 0 01.442-.182h4.394c.416 0 .702.208.858.624l2.08 6.058 2.08-6.058c.156-.416.442-.624.858-.624h4.394a.6.6 0 01.442.182.602.602 0 01.182.442c0 .07-.009.13-.026.182L43.425 44.35a1.89 1.89 0 01-.338.494c-.122.104-.295.156-.52.156h-4.16zm12.269-14.95a.675.675 0 01-.494-.208.675.675 0 01-.208-.494v-3.146c0-.19.07-.355.208-.494a.675.675 0 01.494-.208h4.394c.19 0 .355.07.494.208a.675.675 0 01.208.494v3.146a.68.68 0 01-.208.494.675.675 0 01-.494.208h-4.394zM50.546 45a.675.675 0 01-.494-.208.675.675 0 01-.208-.494V32.182c0-.19.07-.355.208-.494a.675.675 0 01.494-.208H55.2c.19 0 .355.07.494.208a.675.675 0 01.208.494v12.116a.68.68 0 01-.208.494.675.675 0 01-.494.208h-4.654zm12.876.26c-1.612 0-2.912-.485-3.9-1.456-.988-.97-1.525-2.487-1.612-4.55l-.026-1.04.026-1.014c.07-1.959.607-3.44 1.612-4.446 1.023-1.023 2.323-1.534 3.9-1.534 1.404 0 2.557.407 3.458 1.222v-5.2c0-.19.07-.355.208-.494a.675.675 0 01.494-.208h4.81c.19 0 .356.07.494.208a.675.675 0 01.208.494v17.056a.68.68 0 01-.208.494.675.675 0 01-.494.208h-4.42a.675.675 0 01-.494-.208.675.675 0 01-.208-.494V43.7c-.918 1.04-2.201 1.56-3.848 1.56zm2.158-4.654c.45 0 .772-.121.962-.364.19-.26.303-.641.338-1.144.035-.52.052-.84.052-.962 0-.121-.017-.442-.052-.962-.034-.433-.156-.754-.364-.962-.19-.225-.503-.338-.936-.338-.45 0-.771.121-.962.364-.173.243-.286.624-.338 1.144-.017.173-.026.46-.026.858 0 .399.009.685.026.858.052.52.165.901.338 1.144.19.243.511.364.962.364z" fill="#717385"/><rect x="77" y="34" width="113" height="6" rx="1" fill="#717385"/></svg>