<svg width="64" height="64" viewBox="0 0 64 64" fill="none" xmlns="http://www.w3.org/2000/svg"><path d="M42.308 22.266a13.04 13.04 0 00-2.175-7.215 12.926 12.926 0 00-5.793-4.782 12.837 12.837 0 00-7.458-.74 12.885 12.885 0 00-6.61 3.555 13.01 13.01 0 00-3.532 6.648 13.057 13.057 0 00.734 7.503 12.969 12.969 0 004.755 5.828A12.853 12.853 0 0029.4 35.25a12.87 12.87 0 009.127-3.803 13.025 13.025 0 003.781-9.182zM29.4 33.396a11.02 11.02 0 01-6.147-1.876 11.116 11.116 0 01-4.075-4.995 11.192 11.192 0 01-.63-6.43 11.152 11.152 0 013.029-5.7 11.044 11.044 0 015.664-3.046 10.995 10.995 0 016.393.634 11.07 11.07 0 014.965 4.099 11.178 11.178 0 011.865 6.184c0 2.952-1.166 5.783-3.24 7.87a11.03 11.03 0 01-7.824 3.26z" fill="#fff"/><path d="M39.275 35.687a16.668 16.668 0 004.772-5.564 16.772 16.772 0 00.659-14.321 16.692 16.692 0 00-4.242-5.984 16.461 16.461 0 00-6.042-3.478 16.392 16.392 0 00-6.93-.659 16.549 16.549 0 00-8.962 3.966 16.71 16.71 0 00-5.18 8.356 16.79 16.79 0 00.403 9.84 16.687 16.687 0 005.846 7.9 11.291 11.291 0 013.513 4.23c2.683 5.667 2.268 10.546 1.973 14.107-.221 2.607-.387 4.638.793 5.955a4.493 4.493 0 003.522 1.187 4.474 4.474 0 003.522-1.187c1.19-1.298 1.014-3.358.793-5.955-.295-3.46-.691-8.208 1.78-13.7a12.044 12.044 0 013.78-4.693zm-7.376 18.551c.184 2.152.322 3.85-.314 4.545a2.935 2.935 0 01-2.185.584 2.929 2.929 0 01-2.167-.584c-.636-.696-.498-2.393-.313-4.545.313-3.775.747-8.941-2.14-15.063a13.154 13.154 0 00-4.084-4.935 14.832 14.832 0 01-5.197-7.018 14.926 14.926 0 01-.363-8.744 14.854 14.854 0 014.598-7.43 14.71 14.71 0 017.96-3.53 14.669 14.669 0 016.149.59 14.73 14.73 0 015.37 3.07 14.837 14.837 0 013.65 5.012 14.917 14.917 0 011.29 6.076 14.987 14.987 0 01-1.587 6.674 14.895 14.895 0 01-4.388 5.254 13.897 13.897 0 00-4.361 5.426c-2.665 5.927-2.241 10.954-1.937 14.618h.019z" fill="#fff"/><path d="M27.823 16.042l-4.61 4.638a.929.929 0 00.636 1.631.92.92 0 00.664-.323l4.61-4.638a.93.93 0 00-.048-1.26.92.92 0 00-1.252-.048zM23.6 18.287l1.845-1.855a.93.93 0 00-.665-1.53.918.918 0 00-.635.222L22.3 16.979a.924.924 0 00-.322.669.933.933 0 00.585.899.918.918 0 001.037-.26z" fill="#fff"/></svg>