<svg width="64" height="64" fill="none" xmlns="http://www.w3.org/2000/svg"><path fill-rule="evenodd" clip-rule="evenodd" d="M6.138 17.4A3.149 3.149 0 003 20.56v33.28A3.15 3.15 0 006.138 57h51.724A3.149 3.149 0 0061 53.84V20.56a3.15 3.15 0 00-3.138-3.16H6.138zM1 20.56c0-2.845 2.295-5.16 5.138-5.16h51.724c2.843 0 5.138 2.315 5.138 5.16v33.28c0 2.845-2.295 5.16-5.138 5.16H6.138C3.295 59 1 56.685 1 53.84V20.56z" fill="#fff"/><path fill-rule="evenodd" clip-rule="evenodd" d="M7.207 14.32a3.075 3.075 0 013.069-3.08h4.138c1.7 0 3.069 1.384 3.069 3.08v2.08a1 1 0 11-2 0v-2.08c0-.601-.484-1.08-1.07-1.08h-4.137c-.586 0-1.07.479-1.07 1.08v2.08a1 1 0 11-2 0v-2.08zm39.31 0a3.075 3.075 0 013.07-3.08h4.137c1.7 0 3.07 1.384 3.07 3.08v2.08a1 1 0 11-2 0v-2.08c0-.601-.484-1.08-1.07-1.08h-4.138c-.585 0-1.069.479-1.069 1.08v2.08a1 1 0 11-2 0v-2.08zM25.793 7c-2.3 0-4.172 1.875-4.172 4.2v4.2h19.724v-4.2c0-2.325-1.873-4.2-4.172-4.2h-11.38zm0-2h11.38c3.413 0 6.172 2.78 6.172 6.2v5.2a1 1 0 01-1 1H20.62a1 1 0 01-1-1v-5.2c0-3.42 2.758-6.2 6.172-6.2z" fill="#fff"/><path fill-rule="evenodd" clip-rule="evenodd" d="M37.184 11.162a.028.028 0 00-.012-.002H25.793a.028.028 0 00-.011.002.042.042 0 00-.02.021.042.042 0 00-.003.017v4.2h11.448v-4.2a.042.042 0 00-.012-.03.037.037 0 00-.011-.008zm-.012-2.002c1.129 0 2.035.918 2.035 2.04v5.2a1 1 0 01-1 1H24.759a1 1 0 01-1-1v-5.2c0-1.122.905-2.04 2.034-2.04h11.38z" fill="#fff"/></svg>