<svg viewBox="0 0 64 64" width="64" height="64" fill="none" xmlns="http://www.w3.org/2000/svg"><g clip-path="url(#clip0)" fill="#fff"><path d="M13.125 30.625a4.73 4.73 0 00-4.63 5.669 4.727 4.727 0 009.355-.944 4.73 4.73 0 00-4.725-4.725zm2.578 5.228a2.627 2.627 0 01-5.203-.503 2.625 2.625 0 115.203.503zM52.5 33.775a3.15 3.15 0 100 6.3 3.15 3.15 0 000-6.3zm0 4.2a1.05 1.05 0 110-2.101 1.05 1.05 0 010 2.101z"/><path d="M55.65 26.425H45.098a6.38 6.38 0 00-4.61-6.03 2.097 2.097 0 00-2.688 2.02v4.829a8.397 8.397 0 01-8.094 4.389A5.755 5.755 0 0127.3 26.95v-2.625a1.05 1.05 0 00-1.05-1.05h-3.106a1.035 1.035 0 00-.244-.695 1.047 1.047 0 00-.786-.355H21v-1.05a3.154 3.154 0 00-3.15-3.15h-4.2a3.154 3.154 0 00-3.15 3.15v1.24A12.61 12.61 0 000 34.825v1.05a2.102 2.102 0 002.1 2.1h2.498a8.921 8.921 0 0017.055 0h23.58a7.34 7.34 0 0014.533 0H60.9a2.102 2.102 0 002.1-2.1v-2.1a7.359 7.359 0 00-7.35-7.35zm-12.668 0h-3.084l-.006-4.016a4.318 4.318 0 013.09 4.016zm-17.16 3.603c-.056-.046-.109-.097-.164-.145-.107-.092-.215-.184-.316-.282-.067-.066-.13-.136-.194-.204-.088-.092-.177-.183-.26-.279-.065-.076-.125-.157-.188-.235-.075-.095-.15-.188-.22-.287-.061-.084-.116-.172-.173-.258-.064-.099-.13-.197-.19-.299-.053-.09-.1-.184-.15-.276-.055-.104-.111-.208-.162-.314-.044-.095-.084-.192-.125-.29a7.113 7.113 0 01-.133-.33c-.036-.098-.067-.198-.1-.299a7.087 7.087 0 01-.102-.348c-.026-.1-.05-.202-.071-.303a7.282 7.282 0 01-.071-.366c-.008-.046-.013-.092-.02-.138H25.2v1.575a7.9 7.9 0 00.622 3.078zM12.6 21.175a1.051 1.051 0 011.05-1.05h4.2a1.051 1.051 0 011.05 1.05v1.05h-6.3v-1.05zm.525 21a6.852 6.852 0 01-6.69-5.465 6.825 6.825 0 1113.378.005 6.85 6.85 0 01-6.688 5.46zm39.375 0a5.25 5.25 0 110-10.499 5.25 5.25 0 010 10.499zm8.4-6.3h-1.125c-.011-.081-.031-.16-.045-.24-.018-.099-.035-.198-.057-.296a7.166 7.166 0 00-.103-.398c-.025-.091-.049-.183-.078-.273a7.262 7.262 0 00-.15-.408c-.03-.079-.058-.159-.091-.236a7.267 7.267 0 00-.221-.458c-.027-.052-.05-.106-.078-.156-.11-.2-.227-.395-.354-.583-.023-.034-.05-.066-.073-.099a7.336 7.336 0 00-.332-.445c-.05-.06-.104-.116-.155-.175a7.5 7.5 0 00-.298-.328c-.062-.063-.127-.122-.191-.182a6.67 6.67 0 00-.306-.278c-.071-.06-.145-.117-.217-.174a7.324 7.324 0 00-.56-.4 7.343 7.343 0 00-1.216-.632 7.233 7.233 0 00-.38-.14c-.09-.03-.18-.062-.272-.09a7.258 7.258 0 00-.41-.106c-.09-.02-.178-.045-.268-.062a7.291 7.291 0 00-.469-.072c-.077-.01-.153-.025-.231-.032a7.376 7.376 0 00-.72-.037c-.243 0-.483.013-.72.037-.078.007-.154.022-.23.032-.158.02-.316.041-.47.072-.09.017-.178.041-.267.062a7.217 7.217 0 00-.41.106c-.093.028-.182.06-.273.09a7.203 7.203 0 00-.38.14 7.283 7.283 0 00-1.455.792 6.35 6.35 0 00-.32.24c-.074.057-.147.113-.218.174a7.303 7.303 0 00-.306.278c-.064.06-.129.119-.19.182a7.387 7.387 0 00-.3.328c-.05.059-.104.115-.154.175a7.407 7.407 0 00-.336.45c-.022.032-.047.06-.068.093a7.298 7.298 0 00-.355.584c-.028.05-.051.104-.078.156-.078.15-.154.302-.22.458-.034.077-.061.157-.092.236a7.29 7.29 0 00-.15.408c-.029.09-.053.181-.078.273a7.083 7.083 0 00-.103.4c-.022.096-.039.195-.056.293-.015.08-.034.16-.046.241h-23.19a8.925 8.925 0 10-17.821 0H2.1v-1.05a10.512 10.512 0 0110.5-10.5H21a9.482 9.482 0 008.174 9.367l.04.005.06.007a10.544 10.544 0 0010.247-5.179H55.65a5.256 5.256 0 015.25 5.25v2.1z"/><path d="M40.95 30.625a1.05 1.05 0 00-1.05 1.05v1.05a1.05 1.05 0 102.1 0v-1.05a1.05 1.05 0 00-1.05-1.05z"/></g><defs><clipPath id="clip0"><path d="M0 0h64v64H0V0z" fill="#fff"/></clipPath></defs></svg>