<svg viewBox="0 0 64 64" width="64" height="61" fill="none" xmlns="http://www.w3.org/2000/svg"><path d="M33.438 42.3s3.148-.511 3.672-2.56c1.05-3.071 3.148-1.023 4.721-2.56 2.099-1.535 2.099-5.12.525-6.143-1.05-1.536-1.574 1.024-5.246-2.048-3.672-3.072-1.574-7.168-6.295-8.192s-10.492 3.072-7.869 7.68" stroke="#fff" stroke-width="2" stroke-miterlimit="10" stroke-linecap="round" stroke-linejoin="round"/><path d="M37.635 38.717s-2.623-3.072-6.82-8.704c-4.197-5.632-13.64 0-9.443 6.144 4.197 6.144 9.443 0 9.443 0m7.345-7.168s4.72-5.12 5.245-8.704c1.05-3.584-1.574-8.192-4.721-6.144-1.574 1.024-.525-4.096-6.295-4.096s-4.722 6.144-7.345 4.608c-3.672-2.56-5.245 3.072-4.196 5.12l1.573 3.072" stroke="#fff" stroke-width="2" stroke-miterlimit="10" stroke-linecap="round" stroke-linejoin="round"/><path d="M30.814 36.669s3.148 8.192 5.77 10.24c2.624 2.56 7.345 2.048 7.345-1.024 0-2.56 3.148 1.024 6.295-4.096 3.148-5.12-2.623-6.144 0-7.168s0-7.68-3.672-7.68c-6.295 0-7.869 2.56-7.869 2.56m-15.738-1.024s-3.147-2.048-6.82-1.024c-3.671.512-6.294 6.144-3.147 8.192 2.099 1.536-3.147 2.56 0 7.68 3.148 5.12 7.87 1.024 7.345 3.584-1.05 3.072 4.72 2.56 6.295 1.024 1.573-1.024 4.196-11.264 4.196-11.264m13.641-21.504s1.049 0 1.573-3.072c1.05-3.584-1.573-7.68-4.721-6.656C37.11 7.485 39.733 1.34 31.34 1.34c-6.295 0-5.246 6.144-9.968 4.608-2.622-1.024-4.72 4.608-3.147 6.656l2.098 2.56" stroke="#fff" stroke-width="2" stroke-miterlimit="10" stroke-linecap="round" stroke-linejoin="round"/><path d="M51.799 38.717s1.574.512 5.246.512c3.672 0 6.82-4.096 4.196-6.656-2.623-3.072 3.672-2.56 1.05-10.24-2.099-6.144-5.246-3.072-7.345-7.68-3.672-7.168-11.54 1.024-11.54 1.024M31.34 50.493s0 2.56 1.049 5.632c1.049 3.584 5.77 5.12 7.868 2.56 2.623-3.584 3.672 2.56 9.968-1.536 5.245-3.584.524-7.68 5.77-9.216 3.148-.512 2.099-6.144-.524-7.168-3.148-1.536-3.673-1.024-3.673-1.024" stroke="#fff" stroke-width="2" stroke-miterlimit="10" stroke-linecap="round" stroke-linejoin="round"/><path d="M11.93 37.18s-1.05.513-3.672 2.56c-2.623 2.56-3.148 7.169 0 8.193 4.197 1.024-1.574 4.096 4.721 8.704 5.246 4.096 7.87-2.048 10.492 2.048 1.574 2.56 6.295 0 6.82-3.072 1.573-3.072 1.049-5.12 1.049-5.12" stroke="#fff" stroke-width="2" stroke-miterlimit="10" stroke-linecap="round" stroke-linejoin="round"/><path d="M20.323 15.165l-3.147-1.536c-3.148-2.56-9.443-1.024-9.443 2.048 0 4.096-3.148.512-6.295 7.68-2.098 5.632 4.197 6.144 1.05 9.728-1.575 2.56 2.622 6.656 5.245 6.144 3.148-1.024 5.77-3.072 5.77-3.072m13.64 11.776s4.72 4.608 9.442-.512" stroke="#fff" stroke-width="2" stroke-miterlimit="10" stroke-linecap="round" stroke-linejoin="round"/><path d="M20.323 16.7s-6.295-1.535-5.77 4.609c.524 3.072-4.721 2.56-2.099 7.68m32-13.824s7.869.512 6.295 7.68c-.524 1.536 6.82 2.56.525 8.192" stroke="#fff" stroke-width="2" stroke-miterlimit="10" stroke-linecap="round" stroke-linejoin="round"/></svg>