<svg width="64" height="64" fill="none" xmlns="http://www.w3.org/2000/svg"><path fill-rule="evenodd" clip-rule="evenodd" d="M28.377 7C17.435 7 8.488 15.405 7.833 26.016H6.167C3.865 26.016 2 27.853 2 30.12c0 1.686 1.033 3.135 2.51 3.766A7.827 7.827 0 002 39.627c0 3.618 2.468 6.668 5.836 7.607.49 5.496 5.175 9.807 10.884 9.807h27.04c5.708 0 10.394-4.31 10.883-9.807 3.369-.94 5.837-3.99 5.837-7.607a7.827 7.827 0 00-2.511-5.742c1.477-.631 2.51-2.08 2.51-3.766 0-2.266-1.865-4.103-4.166-4.103h-1.666C55.991 15.406 47.044 7 36.103 7h-7.726zM54.45 34.221h-4.302l-7.354 7.24c-.495.489-1.3.489-1.795 0l-7.354-7.24H10.03c-3.032 0-5.49 2.42-5.49 5.406 0 2.986 2.458 5.406 5.49 5.406h44.42c3.032 0 5.49-2.42 5.49-5.406 0-2.986-2.457-5.406-5.49-5.406zm-44.42-2.5h24.14c.337 0 .66.132.898.366l6.828 6.723 6.827-6.723a1.28 1.28 0 01.898-.366h8.691c.9 0 1.628-.717 1.628-1.602 0-.885-.729-1.603-1.628-1.603H6.167c-.9 0-1.628.718-1.628 1.603s.729 1.602 1.628 1.602h3.862zm44.02 15.812H10.43c.611 3.968 4.09 7.008 8.291 7.008h27.04c4.2 0 7.68-3.04 8.291-7.008zM36.102 9.5c9.54 0 17.35 7.287 18 16.516H10.377c.651-9.229 8.461-16.516 18-16.516h7.726zM23.481 22.445a1.236 1.236 0 000-1.767l-1.932-1.902a1.284 1.284 0 00-1.795 0 1.236 1.236 0 000 1.768l1.931 1.901c.496.488 1.3.488 1.796 0zm7.725-3.803c-.496.488-1.3.488-1.795 0a1.236 1.236 0 010-1.768l1.931-1.901a1.284 1.284 0 011.796 0c.495.488.495 1.28 0 1.767l-1.932 1.902zm12.622 2.268c.701 0 1.27-.56 1.27-1.25v-1.902c0-.69-.569-1.25-1.27-1.25-.701 0-1.27.56-1.27 1.25v1.902c0 .69.569 1.25 1.27 1.25z" fill="#fff"/></svg>