<svg width="64" height="66" fill="none" xmlns="http://www.w3.org/2000/svg"><path d="M13.867 28.875a1.099 1.099 0 00-.755.302 1.027 1.027 0 00-.312.73v22.687c0 .273.112.536.313.729.2.193.47.302.754.302.283 0 .554-.109.754-.302.2-.193.312-.456.312-.73V29.907a1.001 1.001 0 00-.312-.729 1.068 1.068 0 00-.754-.302zm35.2 1.031v22.688c0 .273.112.536.312.729a1.09 1.09 0 001.509 0c.2-.193.312-.456.312-.73V29.907c0-.273-.112-.536-.312-.729a1.086 1.086 0 00-.755-.302c-.283 0-.554.109-.754.302-.2.193-.312.456-.312.73z" fill="#fff"/><path d="M12 7.219V20.25l-.232-.287a.998.998 0 00-.507-.334.971.971 0 00-.602.026c-.193.072-.36.204-.478.377-.118.173-.181.38-.181.592v34.6a5.26 5.26 0 001.158 3.301l2.275 2.814a7.013 7.013 0 002.408 1.918 6.82 6.82 0 002.97.68h26.378a6.805 6.805 0 002.97-.68 7.013 7.013 0 002.408-1.918l2.275-2.814a5.267 5.267 0 001.158-3.3V20.624c0-.212-.063-.419-.181-.592a1.004 1.004 0 00-.478-.377.971.971 0 00-.602-.026.998.998 0 00-.507.334l-.232.288V16.5a6.31 6.31 0 00-1.42-3.989A5.965 5.965 0 0047 10.406V8.25c.53 0 1.039-.218 1.413-.605.376-.386.586-.91.587-1.457V4.124c0-.547-.212-1.071-.587-1.458A1.972 1.972 0 0047 2.063h-6c-.53 0-1.039.218-1.413.604A2.097 2.097 0 0039 4.125v2.063c0 .546.212 1.07.587 1.457A1.97 1.97 0 0041 8.25v2.156a5.951 5.951 0 00-3.335 1.828 6.276 6.276 0 00-1.617 3.52A7.695 7.695 0 0034 15.468a7.83 7.83 0 00-4 1.118v-5.243A5.245 5.245 0 0028.534 7.7 4.93 4.93 0 0025 6.187a4.856 4.856 0 00-3 1.058V7.22a5.24 5.24 0 00-1.465-3.646A4.924 4.924 0 0017 2.063a4.924 4.924 0 00-3.536 1.51A5.24 5.24 0 0012 7.219zm40 48.006a3.16 3.16 0 01-.695 1.98L49.03 60.02a5.009 5.009 0 01-1.72 1.37 4.86 4.86 0 01-2.12.485H18.81a4.86 4.86 0 01-2.12-.485 5.01 5.01 0 01-1.72-1.37l-2.275-2.814a3.16 3.16 0 01-.695-1.98V23.47l2.423 2.992a.93.93 0 00.128.107.952.952 0 00.128.12c.009.005.02.004.029.01a.947.947 0 00.208.075c.052.02.106.037.16.048.07.003.14 0 .208-.012a.962.962 0 00.17-.018.992.992 0 00.168-.081.96.96 0 00.182-.102c.008-.007.019-.008.027-.016a.97.97 0 00.104-.133.98.98 0 00.115-.13l.305-.53a.77.77 0 01.279-.262.755.755 0 01.732 0 .784.784 0 01.28.262c.187.327.437.61.734.834.297.224.635.383.993.468a2.638 2.638 0 002.105-.391.99.99 0 00.253-.195c.245-.2.456-.442.623-.716a.78.78 0 01.28-.262.756.756 0 011.011.262c.245.42.59.766 1.003 1.006a2.683 2.683 0 002.704 0 2.79 2.79 0 001.003-1.006.77.77 0 01.279-.262.756.756 0 011.011.262c.245.42.59.766 1.003 1.006a2.683 2.683 0 002.704 0 2.79 2.79 0 001.003-1.006.77.77 0 01.279-.262.756.756 0 011.011.262c.245.42.59.766 1.002 1.006a2.683 2.683 0 002.706 0 2.79 2.79 0 001.002-1.006.77.77 0 01.279-.262.756.756 0 011.011.262c.245.42.59.766 1.003 1.007a2.682 2.682 0 002.707-.002 2.79 2.79 0 001.001-1.008.763.763 0 01.273-.273.735.735 0 011.012.27l.31.536c.077.083.15.17.218.263.008.008.019.009.027.016a.96.96 0 00.182.102.517.517 0 00.338.099.538.538 0 00.368-.036.949.949 0 00.208-.075c.01-.006.02-.005.03-.01.08-.081.166-.157.255-.227L52 23.47v31.755zm-11-51.1l6 .003v2.06h-6V4.124zm4 4.125v2.063h-2V8.25h2zm-3 4.125h4a3.944 3.944 0 012.827 1.21A4.195 4.195 0 0150 16.5v6.222l-1.132 1.399a2.727 2.727 0 00-1.046-.63 2.664 2.664 0 00-2.339.339c-.34.232-.627.54-.837.9a.792.792 0 01-.28.263.755.755 0 01-.732 0 .784.784 0 01-.28-.262 2.752 2.752 0 00-1.364-1.16 8.327 8.327 0 00-1.095-4.034A8.01 8.01 0 0038 16.6v-.1a4.195 4.195 0 011.173-2.915A3.944 3.944 0 0142 12.375zm-5.427 5.759a5.988 5.988 0 012.466 2.217 6.24 6.24 0 01.951 3.228 2.751 2.751 0 00-1.345 1.152.77.77 0 01-.279.262.757.757 0 01-1.011-.262 2.79 2.79 0 00-1.002-1.006 2.683 2.683 0 00-2.706 0c-.412.24-.757.587-1.002 1.006a.77.77 0 01-.279.262.757.757 0 01-1.011-.262 2.694 2.694 0 00-1.463-1.23 2.6 2.6 0 00-1.885.07 6.22 6.22 0 011.71-4.178 6.03 6.03 0 013.237-1.74 5.922 5.922 0 013.62.481zM25 8.25c.795 0 1.558.327 2.12.907.563.58.88 1.367.88 2.187v6.94a8.133 8.133 0 00-1.698 3.164 8.303 8.303 0 00-.185 3.611.72.72 0 01-.43-.044.748.748 0 01-.332-.284 2.695 2.695 0 00-1.466-1.231 2.6 2.6 0 00-1.889.075V11.344c0-.82.317-1.607.88-2.187A2.958 2.958 0 0125 8.25zm-8-4.125c.795 0 1.558.327 2.12.907.563.58.88 1.367.88 2.187v17.87a.727.727 0 01-.368-.092.755.755 0 01-.277-.266 2.788 2.788 0 00-.837-.904 2.657 2.657 0 00-2.34-.337 2.72 2.72 0 00-1.045.632L14 22.722V7.22c0-.82.317-1.607.88-2.187A2.958 2.958 0 0117 4.125z" fill="#fff"/><path d="M14.933 10.313a1.097 1.097 0 00.755-.303l1.066-1.03c.197-.195.307-.456.306-.728a1.014 1.014 0 00-.313-.725 1.085 1.085 0 00-.749-.302 1.086 1.086 0 00-.752.296l-1.067 1.031a1 1 0 00-.231 1.124c.08.188.217.35.393.463.175.113.381.174.592.174zm0 4.125a1.097 1.097 0 00.755-.303l1.066-1.03c.197-.195.307-.456.306-.728a1.014 1.014 0 00-.313-.725 1.085 1.085 0 00-.749-.301 1.086 1.086 0 00-.752.295l-1.067 1.031a1 1 0 00-.231 1.124c.08.188.217.35.393.463.175.113.381.174.592.174zm0 4.125a1.097 1.097 0 00.755-.303l1.066-1.03c.197-.195.307-.456.306-.728a1.014 1.014 0 00-.313-.724 1.085 1.085 0 00-.749-.303 1.086 1.086 0 00-.752.296l-1.067 1.031a1 1 0 00-.231 1.124c.08.188.217.35.393.463.175.113.381.174.592.174zm8.534-4.125a1.097 1.097 0 00.754-.303l1.066-1.03c.197-.195.307-.456.306-.728a1.014 1.014 0 00-.312-.725 1.085 1.085 0 00-.75-.301 1.086 1.086 0 00-.752.295l-1.067 1.031c-.149.144-.25.328-.291.528a1 1 0 00.06.596c.081.188.218.35.393.463.175.113.382.174.593.174zm0 4.125a1.097 1.097 0 00.754-.303l1.066-1.03c.197-.195.307-.456.306-.728a1.014 1.014 0 00-.312-.724 1.085 1.085 0 00-.75-.303 1.086 1.086 0 00-.752.296l-1.067 1.031c-.149.144-.25.328-.291.528a1 1 0 00.06.596c.081.188.218.35.393.463.175.113.382.174.593.174z" fill="#fff"/></svg>