<svg viewBox="0 0 64 64" width="64" height="64" fill="none" xmlns="http://www.w3.org/2000/svg"><path d="M31.965 18a8 8 0 110-16 8 8 0 010 16zm0-14a6 6 0 100 12 6 6 0 000-12zm16 52h-32a1 1 0 010-2h32a1 1 0 010 2z" fill="#fff"/><path d="M49.775 62h-35.62a6.19 6.19 0 01-6.19-6.82 6.33 6.33 0 014.51-5.33l11.49-3.59V33.08c-4.25 2.74-9.84 3.57-16.47 2.41a3 3 0 01-2-1.29 3 3 0 013-4.61c12.78 2.25 15.56-5.12 15.68-5.44a.997.997 0 01.14-.26 6 6 0 015.65-3.89h4a6 6 0 015.59 3.89c.056.076.1.16.13.25.11.32 2.9 7.69 15.68 5.44a3 3 0 013 4.61 3.003 3.003 0 01-2 1.29c-6.62 1.17-12.22.34-16.47-2.41v13.19l11.46 3.58a6.33 6.33 0 014.61 5.34 6.191 6.191 0 01-6.19 6.82zm-24.81-31.9a1 1 0 011 1V47a1 1 0 01-.7 1l-12.16 3.8a4.39 4.39 0 00-3.14 3.58 4.19 4.19 0 004.19 4.62h35.62a4.19 4.19 0 004.19-4.62 4.39 4.39 0 00-3.11-3.62L38.665 48a1 1 0 01-.7-1V31.1a1 1 0 011.64-.77c4 3.31 9.57 4.4 16.48 3.18a1 1 0 00-.35-1.97c-13.16 2.33-17.11-4.86-17.77-6.44a.9.9 0 01-.17-.31 4 4 0 00-3.83-2.79h-4a4 4 0 00-3.79 2.79.992.992 0 01-.19.34c-.74 1.64-4.72 8.72-17.78 6.42a1 1 0 00-.35 1.97c6.91 1.22 12.53.13 16.48-3.18a1 1 0 01.63-.24z" fill="#fff"/><path d="M32.965 55h-2v6h2v-6z" fill="#fff"/></svg>