<svg viewBox="0 0 64 80" width="64" height="80" fill="none" xmlns="http://www.w3.org/2000/svg"><g clip-path="url(#clip0)" fill="#fff"><path d="M32 35.2a7.467 7.467 0 10-7.467-7.467A7.475 7.475 0 0032 35.2zm0-12.8a5.333 5.333 0 11-5.333 5.333A5.34 5.34 0 0132 22.4z"/><path d="M29.867 28.8a1.067 1.067 0 001.066-1.067A1.068 1.068 0 0132 26.667a1.067 1.067 0 100-2.134 3.204 3.204 0 00-3.2 3.2 1.068 1.068 0 001.067 1.067z"/><path d="M53.02 47.246l-7.916-7.917a90.47 90.47 0 00.23-6.453 49.686 49.686 0 00-3.191-16.947l.028-.012-.365-.95a65.85 65.85 0 00-7.18-13.588 3.126 3.126 0 00-2.33-1.344C32.195.025 32.1 0 32 0c-.098 0-.191.026-.288.035a3.124 3.124 0 00-2.338 1.344 65.853 65.853 0 00-7.18 13.589l-.365.95.028.012a49.686 49.686 0 00-3.19 16.947c0 2.186.077 4.345.228 6.453l-7.916 7.917a1.07 1.07 0 00-.302.905l2.133 14.933a1.069 1.069 0 002.01.326l2.958-5.914 4.633-.772a2.137 2.137 0 001.724.876h.696l.58 1.74a2.13 2.13 0 002.024 1.46h9.13a2.129 2.129 0 002.022-1.458l.581-1.742h.696a2.138 2.138 0 001.724-.876l4.634.772 2.957 5.914a1.069 1.069 0 001.715.27c.16-.162.263-.37.295-.596l2.134-14.933a1.07 1.07 0 00-.302-.905zM31.134 2.589c.025-.031.05-.06.079-.089.033-.041.069-.08.107-.116a1.06 1.06 0 01.136-.094c.029-.017.058-.037.086-.05a1.02 1.02 0 01.146-.055 1.067 1.067 0 01.285-.05L32 2.134l.029.003c.064.002.128.01.191.023.03.006.063.017.094.026.05.015.097.033.144.055.03.014.06.034.09.052.046.027.09.058.131.092.045.04.086.084.123.132.022.025.046.046.066.074a64.51 64.51 0 016.542 12.172A21.667 21.667 0 0132 16.001a21.678 21.678 0 01-7.41-1.238A64.498 64.498 0 0131.132 2.59zm-7.297 14.135A23.68 23.68 0 0032 18.134a23.68 23.68 0 008.164-1.41A47.515 47.515 0 0143.2 32.877a70.67 70.67 0 01-3.324 22.589l-.012.002H24.13a70.57 70.57 0 01-3.33-22.591 47.514 47.514 0 013.037-16.151zm-6.944 38.757a1.07 1.07 0 00-.78.575l-1.673 3.346-1.575-11.025 6.28-6.28a65.305 65.305 0 002.497 12.593l-4.75.791zm19.672 3.186h-9.129L27.08 57.6h9.84l-.356 1.067zm12.996.735l-1.673-3.346a1.07 1.07 0 00-.779-.575l-4.75-.791a65.297 65.297 0 002.498-12.592l6.28 6.279-1.576 11.025z"/><path d="M38.548 41.825l-3.873-.542-1.726-3.37a1.11 1.11 0 00-1.898 0l-1.726 3.37-3.873.542a1.067 1.067 0 00-.582 1.834l2.779 2.61-.654 3.677a1.066 1.066 0 001.532 1.139L32 49.325l3.473 1.76a1.066 1.066 0 001.532-1.139l-.654-3.676 2.78-2.61a1.068 1.068 0 00-.583-1.834zM34.47 45.11a1.066 1.066 0 00-.32.965l.38 2.14-2.048-1.037a1.068 1.068 0 00-.964 0l-2.048 1.038.38-2.141a1.068 1.068 0 00-.32-.965l-1.577-1.48 2.217-.311a1.067 1.067 0 00.8-.57L32 40.74l1.03 2.009a1.067 1.067 0 00.8.57l2.217.31-1.577 1.481z"/></g><defs><clipPath id="clip0"><path fill="#fff" d="M0 0h64v80H0z"/></clipPath></defs></svg>